<svg width="274" height="5" viewBox="0 0 274 5" fill="none" xmlns="http://www.w3.org/2000/svg">
<path d="M1 1L1 4" stroke="#E0E0E0" stroke-linecap="round"/>
<path d="M40 1L40 4" stroke="#E0E0E0" stroke-linecap="round"/>
<path d="M79 1L79 4" stroke="#E0E0E0" stroke-linecap="round"/>
<path d="M118 1L118 4" stroke="#E0E0E0" stroke-linecap="round"/>
<path d="M156 1L156 4" stroke="#E0E0E0" stroke-linecap="round"/>
<path d="M195 1L195 4" stroke="#E0E0E0" stroke-linecap="round"/>
<path d="M234 1L234 4" stroke="#E0E0E0" stroke-linecap="round"/>
<path d="M273 1L273 4" stroke="#E0E0E0" stroke-linecap="round"/>
<path d="M9 1L9 2" stroke="#E0E0E0" stroke-linecap="round"/>
<path d="M48 1L48 2" stroke="#E0E0E0" stroke-linecap="round"/>
<path d="M86 1L86 2" stroke="#E0E0E0" stroke-linecap="round"/>
<path d="M125 1L125 2" stroke="#E0E0E0" stroke-linecap="round"/>
<path d="M164 1L164 2" stroke="#E0E0E0" stroke-linecap="round"/>
<path d="M203 1L203 2" stroke="#E0E0E0" stroke-linecap="round"/>
<path d="M242 1L242 2" stroke="#E0E0E0" stroke-linecap="round"/>
<path d="M17 1L17 2" stroke="#E0E0E0" stroke-linecap="round"/>
<path d="M55 1L55 2" stroke="#E0E0E0" stroke-linecap="round"/>
<path d="M94 1L94 2" stroke="#E0E0E0" stroke-linecap="round"/>
<path d="M133 1L133 2" stroke="#E0E0E0" stroke-linecap="round"/>
<path d="M172 1L172 2" stroke="#E0E0E0" stroke-linecap="round"/>
<path d="M211 1L211 2" stroke="#E0E0E0" stroke-linecap="round"/>
<path d="M257 1L257 2" stroke="#E0E0E0" stroke-linecap="round"/>
<path d="M24 1L24 2" stroke="#E0E0E0" stroke-linecap="round"/>
<path d="M63 1L63 2" stroke="#E0E0E0" stroke-linecap="round"/>
<path d="M102 1L102 2" stroke="#E0E0E0" stroke-linecap="round"/>
<path d="M141 1L141 2" stroke="#E0E0E0" stroke-linecap="round"/>
<path d="M180 1L180 2" stroke="#E0E0E0" stroke-linecap="round"/>
<path d="M219 1L219 2" stroke="#E0E0E0" stroke-linecap="round"/>
<path d="M250 1L250 2" stroke="#E0E0E0" stroke-linecap="round"/>
<path d="M32 1L32 2" stroke="#E0E0E0" stroke-linecap="round"/>
<path d="M71 1L71 2" stroke="#E0E0E0" stroke-linecap="round"/>
<path d="M110 1L110 2" stroke="#E0E0E0" stroke-linecap="round"/>
<path d="M149 1L149 2" stroke="#E0E0E0" stroke-linecap="round"/>
<path d="M188 1L188 2" stroke="#E0E0E0" stroke-linecap="round"/>
<path d="M226 1L226 2" stroke="#E0E0E0" stroke-linecap="round"/>
<path d="M265 1L265 2" stroke="#E0E0E0" stroke-linecap="round"/>
</svg>
